<?xml version="1.0" standalone="no"?>
<!DOCTYPE svg PUBLIC "-//W3C//DTD SVG 20010904//EN"
 "http://www.w3.org/TR/2001/REC-SVG-20010904/DTD/svg10.dtd">
<svg version="1.0" xmlns="http://www.w3.org/2000/svg"
 width="641.000000pt" height="641.000000pt" viewBox="0 0 641.000000 641.000000"
 preserveAspectRatio="xMidYMid meet">
<metadata>
Created by potrace 1.14, written by Peter Selinger 2001-2017
</metadata>
<g transform="translate(0.000000,641.000000) scale(0.100000,-0.100000)"
fill="#000000" stroke="none">
<path d="M3303 6233 c5 -7 -34 -11 -118 -12 -69 0 -137 -4 -152 -7 -21 -6 -24
-4 -18 7 8 12 6 12 -8 0 -10 -8 -20 -11 -24 -8 -3 4 -12 2 -20 -4 -7 -6 -13
-7 -13 -2 0 5 -19 8 -42 7 -24 -1 -43 -3 -43 -4 0 -1 -20 -3 -45 -5 -25 -2
-52 -6 -60 -8 -30 -8 -86 -18 -113 -21 -15 -2 -30 -6 -34 -9 -3 -4 -14 -2 -24
3 -12 7 -20 7 -24 0 -3 -5 -19 -10 -35 -10 -16 0 -32 -5 -35 -10 -4 -6 -10 -8
-15 -5 -5 3 -11 1 -14 -4 -4 -5 -14 -8 -24 -7 -9 2 -19 0 -22 -4 -3 -4 -21
-10 -40 -13 -19 -3 -49 -10 -67 -15 -17 -6 -34 -8 -37 -4 -3 3 -6 1 -6 -5 0
-10 -28 -19 -90 -30 -13 -2 -28 -9 -31 -15 -4 -6 -12 -7 -19 -3 -9 6 -11 4 -5
-5 6 -10 4 -12 -8 -7 -9 3 -17 2 -19 -3 -2 -5 -16 -10 -31 -12 -16 -3 -32 -10
-36 -17 -5 -7 -11 -12 -15 -12 -19 3 -27 0 -22 -7 3 -5 -10 -8 -29 -7 -18 0
-32 -2 -29 -6 4 -7 -26 -23 -38 -21 -5 1 -8 -3 -8 -9 0 -6 -7 -8 -16 -5 -9 4
-13 2 -8 -5 4 -7 1 -10 -7 -7 -8 3 -20 -1 -27 -9 -8 -7 -18 -11 -23 -7 -5 3
-8 0 -7 -8 2 -7 -3 -12 -9 -11 -7 2 -13 -2 -13 -7 0 -5 -3 -9 -7 -9 -19 3 -31
-2 -53 -23 -14 -13 -26 -22 -27 -21 -7 4 -43 -11 -43 -19 0 -5 -4 -6 -10 -3
-5 3 -10 1 -10 -6 0 -7 -3 -10 -6 -6 -4 3 -15 -4 -26 -16 -11 -12 -16 -15 -12
-7 7 13 6 13 -12 0 -10 -8 -25 -21 -32 -27 -7 -7 -18 -13 -24 -13 -6 0 -17 -8
-25 -17 -10 -12 -12 -13 -8 -3 4 8 -1 6 -10 -5 -9 -11 -20 -20 -26 -20 -5 0
-13 -5 -17 -11 -4 -6 -21 -18 -38 -27 -17 -9 -34 -23 -38 -32 -3 -9 -10 -14
-15 -11 -5 3 -12 -1 -15 -10 -4 -9 -9 -14 -12 -11 -3 3 -19 -8 -35 -24 -16
-16 -29 -27 -29 -25 0 3 -21 -15 -47 -39 -27 -25 -51 -45 -55 -45 -5 0 -8 -7
-8 -15 0 -8 -5 -15 -10 -15 -6 0 -21 -11 -34 -25 -13 -13 -26 -22 -29 -18 -4
3 -7 1 -7 -5 0 -6 -31 -42 -70 -80 -38 -38 -70 -74 -70 -80 0 -6 -9 -13 -20
-17 -11 -3 -19 -9 -17 -13 1 -4 -7 -17 -18 -28 -45 -49 -74 -84 -70 -84 5 0
-19 -32 -48 -62 -9 -10 -14 -18 -11 -18 3 0 -1 -7 -8 -15 -30 -33 -38 -45 -32
-45 4 0 -4 -9 -17 -21 -13 -11 -24 -25 -24 -29 0 -5 -6 -15 -12 -21 -7 -7 -13
-17 -13 -22 0 -5 -9 -20 -20 -34 -11 -14 -17 -30 -13 -37 3 -6 2 -8 -2 -4 -9
9 -65 -83 -65 -107 0 -9 -4 -14 -9 -10 -8 4 -23 -24 -24 -45 0 -3 -7 -11 -14
-18 -7 -8 -11 -17 -8 -22 3 -5 1 -10 -3 -12 -11 -4 -67 -120 -64 -132 2 -5 -5
-17 -15 -28 -10 -11 -17 -22 -15 -24 5 -9 1 -25 -6 -20 -7 4 -11 -10 -14 -51
-1 -7 -5 -13 -10 -13 -4 0 -8 -8 -8 -17 0 -10 -7 -31 -15 -47 -8 -15 -12 -32
-9 -37 3 -5 0 -9 -6 -9 -6 0 -10 -6 -9 -12 1 -7 -3 -25 -9 -41 -7 -15 -14 -38
-16 -50 -3 -12 -14 -58 -26 -101 -11 -44 -22 -89 -24 -100 -3 -12 -8 -37 -12
-56 -4 -19 -11 -43 -16 -54 -7 -14 -7 -16 2 -11 9 6 9 3 1 -13 -6 -12 -11 -25
-10 -29 1 -4 0 -10 -1 -13 -4 -10 -13 -96 -14 -132 -1 -21 -4 -38 -7 -38 -3 0
-5 -10 -4 -22 1 -13 -2 -28 -7 -35 -6 -7 -5 -14 2 -18 8 -5 8 -11 -1 -21 -9
-11 -9 -14 1 -14 10 0 10 -3 0 -15 -10 -12 -10 -15 1 -15 9 0 10 -3 4 -8 -13
-8 -13 -22 -1 -41 6 -9 5 -12 -1 -8 -5 4 -10 -12 -10 -38 -1 -31 3 -43 11 -39
6 3 2 -2 -8 -10 -11 -9 -15 -16 -10 -16 6 0 9 -18 7 -40 -2 -27 1 -40 10 -40
7 0 8 -3 2 -8 -13 -9 -15 -52 -2 -52 6 0 6 -5 0 -12 -11 -15 -11 -28 0 -45 5
-8 3 -13 -5 -13 -10 0 -10 -2 1 -9 9 -6 10 -10 2 -16 -7 -4 -8 -11 -3 -18 9
-12 13 -48 16 -132 0 -27 4 -52 8 -55 4 -3 8 -21 9 -40 2 -19 7 -41 13 -49 9
-12 8 -13 -4 -6 -12 7 -13 6 -4 -6 6 -8 11 -27 12 -43 1 -17 5 -32 10 -35 4
-3 8 -24 10 -46 1 -22 5 -47 9 -55 7 -17 12 -36 17 -65 2 -11 7 -28 10 -37 4
-9 8 -22 10 -30 1 -7 5 -19 9 -25 5 -7 6 -13 2 -13 -3 0 1 -13 9 -29 9 -16 12
-31 9 -35 -4 -3 -1 -6 5 -6 6 0 9 -7 6 -15 -4 -8 -1 -15 6 -15 6 0 10 -6 7
-12 -2 -7 4 -30 15 -51 10 -20 16 -37 12 -37 -4 0 -1 -7 6 -15 7 -8 10 -21 7
-30 -4 -8 -1 -17 5 -21 7 -5 8 -2 3 6 -5 9 -4 11 3 6 7 -4 12 -16 12 -26 0
-10 5 -22 10 -25 6 -4 8 -10 5 -15 -3 -5 0 -12 6 -15 5 -4 8 -14 5 -22 -3 -8
-1 -11 4 -8 6 3 10 -3 10 -15 0 -11 7 -23 15 -26 8 -4 13 -10 10 -14 -7 -11
15 -60 27 -60 4 0 8 -9 8 -20 0 -11 4 -20 10 -20 5 0 9 -3 8 -7 -3 -12 33 -76
51 -91 9 -8 10 -10 2 -6 -7 4 -3 -8 10 -27 13 -19 27 -36 32 -37 4 -2 5 -8 1
-13 -3 -5 0 -9 5 -9 6 0 10 -3 9 -7 -3 -16 15 -43 25 -36 5 3 7 1 3 -5 -3 -6
0 -16 7 -24 7 -7 16 -21 20 -30 3 -10 11 -18 16 -18 5 0 14 -14 20 -30 5 -16
15 -30 22 -30 7 0 10 -3 6 -6 -3 -3 4 -16 16 -29 12 -12 29 -32 37 -45 8 -13
25 -33 37 -46 13 -13 23 -28 23 -34 0 -6 4 -9 8 -6 5 3 16 -8 26 -25 9 -16 22
-29 27 -29 6 0 8 -4 4 -9 -3 -5 4 -12 15 -16 11 -3 19 -12 17 -18 -1 -7 4 -11
10 -10 7 2 12 -3 10 -10 -1 -6 4 -11 11 -10 6 2 12 -4 12 -12 0 -9 7 -18 15
-21 8 -4 15 -10 15 -16 0 -10 26 -39 35 -38 19 1 25 -1 24 -8 -4 -21 3 -31 16
-26 10 4 15 0 15 -11 0 -9 4 -13 10 -10 5 3 10 1 10 -5 0 -6 7 -18 15 -26 12
-12 15 -12 15 -2 0 7 6 2 13 -12 7 -14 20 -24 29 -24 11 1 14 -4 10 -14 -4
-11 -1 -14 12 -9 9 4 15 3 12 -2 -3 -4 6 -18 19 -29 14 -12 25 -20 25 -17 0 3
8 -3 18 -13 11 -9 17 -21 14 -26 -3 -5 2 -7 10 -3 10 3 23 -3 34 -18 10 -13
21 -22 26 -19 4 3 8 0 8 -6 0 -6 4 -9 8 -6 5 3 15 -4 22 -15 8 -10 19 -19 24
-19 5 0 17 -9 27 -21 9 -11 21 -21 26 -21 15 -1 53 -21 53 -28 0 -3 16 -12 35
-20 19 -8 35 -17 35 -21 0 -4 9 -9 21 -12 12 -3 18 -10 15 -16 -4 -6 2 -8 14
-6 11 2 20 0 20 -6 0 -5 7 -9 16 -9 9 0 12 -5 8 -12 -4 -6 -3 -8 4 -4 6 3 16
1 24 -6 14 -13 33 -20 56 -21 6 0 12 -7 12 -15 0 -8 6 -12 15 -8 8 3 15 1 15
-4 0 -6 9 -10 20 -10 11 0 20 -4 20 -10 0 -5 7 -10 15 -10 8 0 15 -4 15 -8 0
-5 7 -9 15 -10 8 -1 22 -3 30 -4 8 -1 15 -5 15 -10 0 -4 7 -8 15 -8 8 0 15 -4
15 -10 0 -5 7 -7 15 -4 8 4 15 1 15 -5 0 -6 7 -8 15 -5 8 4 15 1 15 -6 0 -7 7
-10 15 -6 8 3 15 1 15 -5 0 -6 4 -8 9 -5 5 4 11 1 13 -4 2 -6 20 -12 40 -13
20 -1 34 -5 31 -9 -2 -5 5 -8 16 -8 12 0 21 -3 21 -7 0 -5 14 -9 32 -10 17 -1
34 -7 38 -13 4 -6 11 -10 16 -9 5 1 11 0 14 -1 10 -3 45 -11 58 -12 6 -1 12
-5 12 -9 0 -4 11 -6 25 -3 16 3 25 0 25 -8 0 -10 2 -10 9 0 7 11 9 11 14 -1 3
-9 14 -14 24 -12 10 1 24 -3 32 -9 12 -9 13 -8 7 2 -6 11 -2 11 20 -1 16 -8
35 -12 43 -9 10 3 11 0 5 -9 -7 -12 -5 -12 9 0 9 7 17 9 17 4 0 -6 11 -9 25
-8 14 2 25 -1 25 -6 0 -4 7 -6 15 -3 8 4 23 0 32 -7 15 -12 16 -12 10 4 -6 16
-5 16 18 1 21 -14 28 -14 42 -3 11 10 14 10 9 2 -5 -9 2 -13 23 -13 41 0 43 0
64 -11 12 -7 17 -6 17 3 0 9 3 9 10 -2 9 -13 10 -13 10 0 0 12 2 13 9 1 5 -7
14 -10 20 -7 6 4 11 1 11 -6 0 -8 3 -9 8 -3 10 14 42 15 42 2 0 -6 7 -2 15 9
10 13 13 14 10 3 -4 -11 0 -15 17 -15 13 1 26 6 30 11 5 7 8 7 8 0 0 -14 50
-15 50 -1 0 7 3 7 8 1 10 -14 143 -14 134 0 -3 5 2 4 11 -4 9 -7 17 -10 17 -5
0 10 72 10 88 0 6 -3 14 -1 18 5 5 8 3 9 -6 4 -9 -5 -11 -4 -6 4 6 9 11 9 22
0 11 -9 14 -9 14 1 0 10 3 10 15 0 8 -7 15 -8 15 -4 0 5 21 10 46 10 27 1 50
7 55 15 7 11 9 11 9 1 0 -9 5 -10 18 -3 13 7 23 6 32 -2 10 -9 11 -9 6 1 -5 8
3 12 29 12 25 0 34 4 29 12 -4 7 -3 8 4 4 7 -4 21 -9 33 -11 15 -3 19 0 15 11
-3 8 -1 12 4 9 20 -12 50 -14 56 -3 4 6 2 8 -4 4 -6 -3 -13 -2 -16 3 -3 5 10
7 29 5 26 -2 34 0 28 9 -4 7 0 7 10 -2 15 -12 17 -11 17 4 0 14 3 15 14 6 10
-8 15 -8 18 -1 2 6 16 13 32 16 16 3 34 8 39 11 6 4 7 1 2 -8 -7 -11 -6 -12 7
-2 8 7 18 10 21 6 4 -3 7 -1 7 6 0 7 5 9 10 6 6 -3 10 -1 10 4 0 6 5 11 11 11
5 0 7 -5 3 -11 -3 -6 5 -4 18 5 14 9 28 13 32 9 4 -5 14 1 22 11 10 14 14 16
14 5 0 -8 3 -10 8 -4 4 6 14 10 22 10 8 0 14 5 13 11 -1 6 4 11 12 11 8 0 12
-5 9 -11 -3 -6 1 -3 9 6 9 12 17 14 25 8 7 -6 10 -7 7 -4 -3 4 0 13 6 21 9 10
15 10 25 2 8 -6 14 -7 14 -2 0 5 20 17 45 27 24 10 42 23 39 28 -4 6 3 5 15
-1 17 -9 21 -9 19 1 -2 7 7 14 20 16 13 2 20 8 16 14 -5 7 -1 9 9 5 10 -3 17
-3 17 1 0 4 9 13 21 20 12 8 18 9 14 3 -3 -6 -1 -11 4 -11 6 0 11 6 11 13 0 7
12 14 27 15 15 1 34 10 43 19 14 16 14 16 -5 2 -18 -13 -19 -13 -6 3 7 10 18
15 23 12 5 -3 16 2 24 12 9 11 12 13 9 6 -6 -11 -3 -11 16 0 13 7 26 16 29 19
8 10 54 33 61 32 4 -1 15 7 24 17 10 11 22 20 26 20 10 0 187 120 221 149 50
43 67 57 104 86 22 16 54 45 71 63 18 18 35 32 38 32 3 0 5 3 6 8 0 4 9 12 19
17 10 6 19 15 20 20 1 6 11 15 23 22 14 8 17 12 7 13 -8 0 3 11 25 25 22 13
36 25 30 25 -5 0 4 9 20 20 17 11 27 20 23 20 -4 0 6 14 24 30 18 18 25 30 17
30 -9 0 -6 5 6 12 22 12 117 108 107 108 -3 0 3 7 14 15 10 8 16 15 11 15 -4
0 10 16 30 35 20 19 33 35 28 35 -6 0 -2 5 8 11 9 6 15 14 12 19 -3 4 2 11 11
14 8 3 13 10 10 15 -3 5 1 12 10 15 8 3 13 10 9 15 -3 5 4 12 15 16 17 5 25
22 21 47 0 4 8 10 19 13 11 4 18 10 15 15 -3 5 -1 11 5 15 6 4 8 10 5 15 -3 4
2 11 11 14 8 3 13 10 10 15 -3 5 1 12 10 15 8 3 13 10 10 15 -3 5 1 12 10 15
8 3 13 10 10 15 -3 5 1 12 10 15 8 3 13 10 10 15 -4 5 -1 11 4 13 6 2 12 13
13 25 0 13 7 25 15 28 7 3 10 9 7 15 -3 5 0 10 7 10 10 0 10 2 -1 9 -11 7 -9
10 8 16 18 5 24 16 20 41 0 4 3 10 8 13 14 10 45 71 36 71 -4 0 -1 5 7 10 13
8 13 10 1 10 -11 0 -9 4 5 15 10 8 15 15 9 15 -5 0 -5 4 2 8 6 4 13 16 15 27
1 11 6 22 10 25 3 3 8 14 10 25 1 11 8 23 13 27 6 5 4 8 -4 8 -11 0 -9 4 5 15
10 8 15 15 9 15 -5 0 -5 4 2 8 6 4 13 16 15 27 1 11 8 23 13 27 6 5 4 8 -5 8
-13 0 -13 1 0 10 8 5 15 13 16 17 0 4 3 15 7 23 3 8 7 24 9 35 2 11 8 23 13
27 6 5 4 8 -5 8 -12 0 -13 2 -1 9 7 5 14 23 15 40 0 17 6 33 13 35 7 3 10 14
8 26 -2 11 -1 20 3 20 8 0 12 21 15 75 1 17 6 33 12 37 6 5 4 8 -5 8 -13 0
-13 1 0 10 13 9 13 10 0 10 -13 0 -13 1 0 10 8 5 15 17 16 27 0 10 4 26 9 37
4 10 9 44 9 75 1 31 6 59 11 63 6 5 4 8 -5 8 -13 0 -13 1 0 10 13 9 13 10 0
10 -13 0 -13 1 0 10 13 9 13 10 0 10 -13 0 -13 1 0 10 13 9 13 10 0 10 -12 0
-12 2 -1 9 9 6 14 32 15 80 0 39 5 71 11 71 6 0 4 4 -3 9 -17 11 -17 21 0 32
7 5 8 9 3 9 -6 0 -11 11 -11 25 0 14 5 25 11 25 7 0 7 3 0 8 -14 9 -14 45 0
54 7 5 7 8 0 8 -6 0 -11 11 -11 25 0 14 5 25 11 25 5 0 3 5 -5 10 -13 9 -13
10 0 10 9 0 11 3 5 8 -6 4 -10 38 -11 75 0 48 -5 71 -15 78 -12 7 -12 9 1 9
13 0 13 1 0 10 -13 9 -13 10 0 10 13 0 13 1 0 10 -13 9 -13 10 0 10 13 0 13 1
0 10 -13 9 -13 10 0 10 9 0 11 3 5 8 -5 4 -10 33 -11 65 -1 39 -6 62 -15 68
-12 7 -12 9 1 9 10 0 11 3 4 8 -6 4 -10 15 -8 25 1 10 -4 21 -13 24 -12 5 -12
7 -1 14 10 7 10 9 -2 9 -13 0 -13 1 0 10 13 9 13 10 0 10 -13 0 -13 1 0 10 8
5 10 10 5 10 -6 0 -11 14 -12 32 0 18 -6 34 -13 36 -9 3 -9 7 1 13 11 7 11 9
1 9 -7 0 -10 5 -7 10 3 6 -1 13 -10 16 -13 6 -14 8 -3 15 8 5 9 9 2 9 -7 0
-10 13 -9 31 2 19 -3 33 -12 36 -12 5 -12 7 -1 14 9 6 9 9 1 9 -6 0 -10 9 -8
20 2 11 -1 22 -6 25 -5 4 -7 11 -4 16 4 5 1 9 -5 9 -6 0 -8 5 -5 10 3 6 -1 13
-10 16 -13 6 -14 8 -3 15 9 6 9 9 1 9 -7 0 -10 9 -8 20 2 12 -2 23 -10 27 -8
3 -12 9 -9 14 3 5 -2 12 -11 15 -13 6 -14 8 -3 15 7 5 8 9 3 9 -6 0 -11 14
-12 32 0 18 -6 34 -12 36 -6 2 -9 8 -5 13 3 5 -1 12 -10 15 -8 3 -13 14 -11
25 2 11 -2 22 -8 25 -7 2 -14 14 -14 26 -1 12 -8 25 -15 29 -7 5 -8 9 -3 9 6
0 1 7 -10 16 -11 8 -19 17 -17 19 8 16 -1 35 -19 40 -17 6 -19 9 -8 16 11 7
11 9 1 9 -7 0 -10 5 -7 10 3 6 -1 13 -10 16 -13 6 -14 8 -3 15 10 7 11 9 0 9
-7 0 -10 5 -7 10 3 6 -1 13 -9 16 -9 3 -13 10 -10 15 3 5 -2 12 -10 15 -9 3
-13 10 -10 15 3 5 -6 20 -19 33 -16 16 -21 27 -14 30 9 3 8 5 0 5 -7 1 -13 8
-13 16 0 8 -5 15 -11 15 -5 0 -7 5 -4 10 3 6 -1 13 -9 16 -9 3 -16 12 -16 20
0 8 -4 14 -10 14 -5 0 -10 6 -10 14 0 8 -9 17 -19 21 -11 3 -18 13 -17 22 2 9
-12 32 -30 50 -19 18 -34 36 -34 38 0 3 0 10 0 15 0 6 -12 18 -27 28 -16 9
-29 24 -31 32 -2 8 -21 32 -42 52 -21 20 -36 39 -33 42 3 3 -2 8 -11 12 -9 3
-16 12 -16 19 0 8 -9 17 -20 20 -11 3 -20 12 -20 20 0 8 -9 17 -20 20 -11 4
-18 10 -15 14 2 4 -7 14 -20 21 -13 7 -22 17 -19 21 2 5 -12 17 -33 28 -21 11
-34 20 -29 21 13 0 -75 85 -114 109 -19 11 -31 21 -26 21 5 0 -3 9 -17 20 -14
11 -28 20 -31 20 -3 0 -16 10 -29 23 -31 28 -65 54 -99 75 -16 9 -28 20 -28
24 0 4 -7 8 -15 8 -8 0 -15 5 -15 10 0 6 -10 10 -22 10 -12 0 -18 3 -15 6 4 4
-15 18 -40 32 -26 13 -53 31 -61 38 -7 8 -17 12 -22 9 -5 -3 -10 -2 -12 3 -3
8 -78 56 -88 57 -3 1 -33 15 -67 32 -35 18 -63 29 -63 25 0 -4 -4 -2 -8 3 -13
19 -57 42 -74 39 -10 -1 -18 2 -18 8 0 6 -6 8 -14 5 -8 -3 -17 1 -20 9 -3 9
-10 13 -15 9 -5 -3 -12 -1 -16 5 -4 6 -11 8 -16 5 -5 -4 -9 -1 -9 6 0 7 -3 10
-6 6 -4 -3 -20 1 -36 9 -16 9 -36 13 -44 10 -10 -4 -12 -2 -8 6 5 7 2 9 -9 5
-8 -3 -18 0 -20 7 -3 8 -17 12 -31 11 -14 -2 -26 2 -26 8 0 5 -3 8 -6 4 -4 -3
-19 0 -35 8 -15 8 -41 15 -57 15 -15 0 -32 4 -38 10 -5 5 -26 10 -47 12 -20 1
-37 6 -37 11 0 5 -6 7 -14 4 -7 -3 -19 0 -25 6 -8 8 -11 8 -11 -2 0 -8 -5 -7
-16 4 -14 13 -19 14 -25 3 -7 -11 -9 -11 -9 1 0 8 -7 11 -20 8 -11 -3 -22 -1
-25 4 -3 4 -13 5 -22 2 -10 -4 -14 -2 -9 5 4 7 -2 8 -23 2 -16 -4 -32 -5 -36
-2 -3 3 -13 7 -23 9 -72 10 -117 15 -182 18 -41 3 -75 5 -75 6 0 0 -20 2 -45
3 -25 0 -51 5 -59 10 -9 6 -12 5 -8 -1z"/>
<path d="M3915 290 c-3 -5 -1 -10 4 -10 6 0 11 5 11 10 0 6 -2 10 -4 10 -3 0
-8 -4 -11 -10z"/>
</g>
</svg>
